<svg xmlns="http://www.w3.org/2000/svg" width="256" height="256"><path fill="#1976D2" fill-opacity=".016" fill-rule="evenodd" d="M0 128.004v128.004l128.25-.254 128.25-.254.254-127.75L257.008 0H0zm.485.496c0 70.4.119 99.053.265 63.672s.146-92.98 0-128S.485 58.1.485 128.5"/><path fill="#1976D2" fill-opacity=".315" fill-rule="evenodd" d="M73 1c0 .55-.594 1-1.32 1-2.449 0-9.418 6.912-11.557 11.462C58.784 16.31 58 19.96 58 23.342v5.365l-7.502.634c-8.811.745-13.729 3.449-18.168 9.989L29.5 43.5l.053 55.25.053 55.25h-5.681C10.365 154 0 164.019 0 177.126 0 180.375.447 183 1 183c.55 0 1 .607 1 1.35 0 .742 1.31 3.158 2.91 5.367 4.001 5.523 10.878 8.778 18.59 8.8l6 .017.548 7.983c.629 9.161 1.339 10.793 6.874 15.794 5.051 4.563 6.22 4.838 19.078 4.481l10.5-.292-.243-3c-.134-1.65-.512-5.308-.839-8.129-.708-6.109.972-10.06 5.831-13.71 7.06-5.303 15.343-4.286 21.262 2.612 3.889 4.532 3.848 4.191 2.298 19.227l-.309 3 29.75.876 29.75.876v5.752c0 6.922 1.719 11.35 6.171 15.894 4.489 4.581 8.534 6.102 16.232 6.102 7.677 0 10.207-.841 14.881-4.945 4.809-4.221 7.716-10.778 7.716-17.4v-5.366l7.375-.558c7.692-.582 10.239-1.559 14.944-5.731 6.347-5.627 6.189-3.949 6.102-64.75l-.08-55.25h6.37c7.386 0 12.607-2.213 16.7-7.077C263.031 79.926 252.978 59 233.154 59h-5.868l-.539-7.854c-.634-9.263-3.379-14.545-9.418-18.125-3.113-1.845-5.797-2.364-14.348-2.776-12.641-.609-14.084.179-11.531 6.29 2.135 5.11 1.917 9.258-.732 13.935-6.446 11.383-20.997 11.641-28.518.506-1.95-2.886-2.256-4.324-1.806-8.476.299-2.75.67-6.575.825-8.5l.281-3.5-18-.625c-9.9-.344-23.062-.682-29.25-.75L103 29v-6.04c0-4.031-.654-7.321-1.966-9.892C98.958 8.998 91.551 2 89.32 2 88.594 2 88 1.55 88 1c0-.578-3.167-1-7.5-1S73 .422 73 1m45.063 100.192C107.391 105.289 99 117.31 99 128.5c0 15.185 14.315 29.5 29.5 29.5 11.37 0 23.266-8.413 27.357-19.347 4.12-11.012 1.623-22.268-6.809-30.701-8.42-8.419-20.054-10.957-30.985-6.76"/><path fill="#1976D2" fill-opacity=".36" fill-rule="evenodd" d="M77.211 1.538C76.501 2.342 75.033 3 73.947 3c-2.856 0-8.5 3.983-10.607 7.485-3.374 5.607-4.421 9.814-3.797 15.265l.601 5.25h-7.525c-8.486 0-11.782 1.119-16.141 5.478C30.972 41.983 31 41.72 31 87.523v42.429l16.75.274 16.75.274-.235 3.665c-.129 2.015.44 5.278 1.264 7.25 1.493 3.574 1.516 3.585 7.784 3.585 9.807 0 11.325 3.279 4.687 10.119-2.354 2.426-4 5.086-4 6.463C74 164.854 92.146 183 95.418 183c1.377 0 4.037-1.646 6.463-4 6.831-6.63 10.119-5.118 10.119 4.653 0 6.135.065 6.284 3.418 7.875 2.191 1.04 4.703 1.417 7 1.052l3.582-.569v16.994c0 12.908.301 17.005 1.25 17.035.688.023 7.1.135 14.25.25l13 .21.5 7.5c.542 8.136 2.843 13.158 7.821 17.074 15.311 12.045 37.12-.158 34.935-19.547-.591-5.246-.283-5.431 8.93-5.369 8.004.054 13.463-2.855 17.162-9.147l2.652-4.511v-86l-17.25-.274c-12.771-.202-17.264-.592-17.305-1.5-.524-11.775-1.283-12.726-10.158-12.726-5.266 0-5.941-.244-6.982-2.53-1.036-2.273-.794-2.906 2.391-6.25 5.146-5.402 5.889-7.166 4.29-10.189-1.651-3.119-15.132-16.372-18.3-17.989-2.593-1.323-3.111-1.057-9.406 4.828-3.336 3.118-3.983 3.359-6.25 2.325-2.286-1.041-2.53-1.716-2.53-6.982 0-7.817-1.254-9.29-8.569-10.076L130.5 64.5l-.177-16.5-.176-16.5-14.324-.5-14.323-.5.332-5.587C102.438 14.699 94.593 3 87.136 3c-1.04 0-2.451-.675-3.136-1.5-1.572-1.894-5.103-1.874-6.789.038M122.5 96.242c-14.141 3.5-23.047 12.71-26.421 27.324-2.806 12.156 5.741 28.414 17.921 34.089 10.75 5.008 18.176 5.006 29-.011 12.167-5.639 20.728-21.919 17.921-34.078-3.512-15.214-11.972-23.747-27.185-27.417-5.345-1.289-5.659-1.286-11.236.093"/><path fill="#1976D2" fill-opacity=".409" fill-rule="evenodd" d="M114.75 67.005c-1.331.832-1.754 2.461-1.765 6.795-.017 6.29-.451 7.356-3.689 9.061-1.953 1.028-2.785.645-7.284-3.35C99.219 77.03 96.187 75 95.274 75 93.112 75 75 93.112 75 95.274c0 .913 2.03 3.945 4.511 6.738 3.995 4.499 4.378 5.331 3.35 7.284-1.705 3.239-2.77 3.672-9.076 3.689-7.825.021-8.247.965-7.342 16.431.388 6.632 1.177 12.626 1.754 13.321.624.753 3.4 1.263 6.869 1.263 4.881 0 6.072.359 7.377 2.223 2.246 3.205 2.041 3.838-2.943 9.114-2.475 2.621-4.5 5.399-4.5 6.175C75 163.352 93.648 182 95.488 182c.776 0 3.554-2.025 6.174-4.5 3.556-3.359 5.28-4.342 6.801-3.877 3.808 1.163 4.537 2.509 4.537 8.377 0 6.946 1.376 8.447 7.903 8.621 2.528.067 5.394.457 6.368.866s4.741.554 8.371.323c8.115-.517 9.358-1.848 9.358-10.026 0-5.357.212-5.914 2.592-6.819 2.299-.874 3.158-.476 7.608 3.525 2.759 2.48 5.708 4.51 6.554 4.51 2.007 0 21.246-19.239 21.246-21.246 0-.846-2.03-3.795-4.51-6.554-4.001-4.45-4.399-5.309-3.525-7.608.905-2.38 1.462-2.592 6.819-2.592 8.348 0 9.548-1.192 10.045-9.973.254-4.496-.013-7.611-.711-8.309-.615-.615-1.118-3.413-1.118-6.218s-.54-5.64-1.2-6.3c-.68-.68-3.939-1.2-7.525-1.2-5.869 0-6.395-.185-7.3-2.565-1.411-3.711-1.313-4.031 2.37-7.713 7.026-7.026 6.931-7.479-3.829-18.238s-11.212-10.855-18.238-3.829c-3.682 3.683-4.002 3.781-7.713 2.37C144.18 82.118 144 81.6 144 75.647c0-3.98-.484-6.804-1.279-7.464-1.857-1.541-25.779-2.548-27.971-1.178M120 95.169c-7.713 3.188-9.763 4.267-13.043 6.865-4.686 3.712-8.53 9.326-10.988 16.05-7.65 20.93 9.842 44.847 32.843 44.905 9.939.025 21.199-6.115 27.402-14.941 9.279-13.206 8.802-28.223-1.306-41.126-7.717-9.85-25.24-15.75-34.908-11.753"/></svg>